<svg width="98" height="59" viewBox="0 0 98 59" fill="none" xmlns="http://www.w3.org/2000/svg">
<g clip-path="url(#clip0_1_3282)">
<path fill-rule="evenodd" clip-rule="evenodd" d="M6.66406 56.3027V2.61233L10.1564 -0.791174L16.6249 -0.792767L18.5589 -2.81363L27.8337 -2.79929L28.7411 -1.81753L40.9428 -1.82284L41.7521 -2.79982H60.2629L61.0371 -1.81541L73.2419 -1.81806L74.1635 -2.79982L83.453 -2.81363L85.2946 -0.795421L91.7254 -0.793297L95.2177 2.6102V56.334L91.7118 59.7375L85.3167 59.7391L83.4556 61.8025L74.121 61.7775L72.9435 59.729C57.8899 59.7365 44.3811 59.7115 29.3323 59.7051L27.8253 61.7993L18.5211 61.8136L16.6522 59.7413L10.1559 59.7391L6.66406 56.3027Z" fill="url(#paint0_linear_1_3282)"/>
<path d="M6.47949 56.3027V2.53374C7.68015 1.36349 8.88133 0.193239 10.082 -0.977013L16.5468 -0.979137L18.4808 -3C21.6248 -2.99522 24.7694 -2.99044 27.9135 -2.98566L28.8204 -2.00444L40.8563 -2.00975L41.6657 -2.98673C47.8945 -2.98673 54.1233 -2.98726 60.3521 -2.98673L61.1263 -2.00231L73.1628 -2.00497L74.0844 -2.98673L83.5344 -3L85.3765 -0.981792L91.8005 -0.979668C93.0017 0.190585 94.2023 1.36084 95.403 2.53109V56.4126C94.1976 57.5829 92.9922 58.7531 91.7869 59.9234L85.3991 59.925L83.5381 61.9883C80.373 61.9798 77.2075 61.9719 74.0424 61.9634L72.889 59.9255C57.8973 59.9329 44.3775 59.9313 29.3906 59.925L27.9061 61.9857C24.7511 61.9904 21.596 61.9952 18.4409 62L16.5715 59.9276L10.082 59.9255C8.88133 58.7441 7.68067 57.5622 6.48002 56.3808V56.3027H6.47949ZM6.84929 2.69144V56.2241L10.232 59.5528L16.7352 59.5549L18.6041 61.6267L27.7467 61.6129L29.2316 59.5522C44.3439 59.5591 57.9314 59.5607 73.0485 59.5528L74.2024 61.5912L83.3755 61.6156L85.2365 59.5528L91.6389 59.5512L95.0342 56.2549V2.68879L91.6521 -0.606929L85.215 -0.609053L83.3734 -2.62726L74.2444 -2.61346L73.3223 -1.6317C69.1979 -1.63063 65.0729 -1.6301 60.9485 -1.62904L60.1743 -2.61346H41.8393L41.0299 -1.63648C36.9071 -1.63488 32.7848 -1.63329 28.662 -1.63117L27.7545 -2.61292L18.6371 -2.62673L16.7037 -0.606398L10.2315 -0.604805L6.84929 2.69144Z" fill="#A3F1FF"/>
<path fill-rule="evenodd" clip-rule="evenodd" d="M4.93472 35.3428V35.793L3.87988 36.4891V35.921L4.7569 35.3428H4.93472ZM4.93472 36.0176V36.5948L3.87988 37.2904V36.7137L4.93472 36.0176ZM4.93472 36.8189V37.4024L3.87988 38.0964V37.5144L4.93472 36.8189ZM4.93472 37.627V38.1914L3.87988 38.887V38.321L4.93472 37.627ZM4.93472 38.4155V38.9762L3.87988 39.6739V39.111L4.93472 38.4155ZM4.93472 39.2008V39.7843L3.87988 40.4804V39.8985L4.93472 39.2008ZM4.93472 40.0089V40.5765L3.87988 41.2737V40.705L4.93472 40.0089ZM4.93472 40.8011V41.3762L3.87988 42.0728V41.4977L4.93472 40.8011ZM4.93472 41.6013V42.1731L3.87988 42.8703V42.2979L4.93472 41.6013ZM4.93472 42.3977V42.9797L3.87988 43.6752V43.0949L4.93472 42.3977ZM4.93472 43.2037V43.7761L3.87988 44.4717V43.8988L4.93472 43.2037ZM4.93472 44.0013V44.5747L3.95174 45.223L4.07711 45.3648L4.93472 44.7993V45.4136H3.87988V44.6968L4.93472 44.0013ZM3.87988 35.6964V35.3428H4.41648L3.87988 35.6964Z" fill="#A3F1FF"/>
<path d="M5.20928 46.2265H6.45714H6.4755V46.1979V45.7014V45.6727H6.45714H5.20928H5.19092V45.7014V46.1979V46.2265H5.20928ZM6.43826 46.1692H5.22764V45.7301H6.43878V46.1692H6.43826Z" fill="#A3F1FF"/>
<path fill-rule="evenodd" clip-rule="evenodd" d="M5.7417 46.0869H6.34491V45.8124H5.7417V46.0869Z" fill="#A3F1FF"/>
<path d="M5.20976 46.8743H6.45763H6.47599V46.8457V46.3492V46.3205H6.45763H5.20976H5.19141V46.3492V46.8457V46.8743H5.20976ZM6.43927 46.817H5.22812V46.3779H6.43927V46.817Z" fill="#A3F1FF"/>
<path d="M5.20976 47.5216H6.45868H6.47704V47.4929V46.9964V46.9678H6.45868H5.20976H5.19141V46.9964V47.4929V47.5216H5.20976ZM6.43979 47.4642H5.22812V47.0251H6.44032V47.4642H6.43979Z" fill="#A3F1FF"/>
<path fill-rule="evenodd" clip-rule="evenodd" d="M5.53125 46.7347H6.3448V46.4602H5.53125V46.7347Z" fill="#A3F1FF"/>
<path fill-rule="evenodd" clip-rule="evenodd" d="M5.33008 47.3825H6.34452V47.1079H5.33008V47.3825Z" fill="#A3F1FF"/>
<path fill-rule="evenodd" clip-rule="evenodd" d="M3.88198 46.1665L5.19121 47.52V46.74L4.23761 45.7752L5.19121 46.74V45.6733L4.93524 45.4136H3.87988L3.88198 46.1665Z" fill="#A3F1FF"/>
<path fill-rule="evenodd" clip-rule="evenodd" d="M4.93472 32.0662V31.6159L3.87988 30.9198V31.4879L4.7569 32.0662H4.93472ZM4.93472 31.3913V30.8141L3.87988 30.1186V30.6952L4.93472 31.3913ZM4.93472 30.5895V30.006L3.87988 29.312V29.894L4.93472 30.5895ZM4.93472 29.7819V29.2175L3.87988 28.522V29.088L4.93472 29.7819ZM4.93472 28.9929V28.4322L3.87988 27.7345V28.2974L4.93472 28.9929ZM4.93472 28.2076V27.6241L3.87988 26.928V27.5099L4.93472 28.2076ZM4.93472 27.3995V26.8319L3.87988 26.1347V26.7034L4.93472 27.3995ZM4.93472 26.6073V26.0322L3.87988 25.3356V25.9107L4.93472 26.6073ZM4.93472 25.8071V25.2353L3.87988 24.5381V25.1105L4.93472 25.8071ZM4.93472 25.0107V24.4287L3.87988 23.7332V24.3135L4.93472 25.0107ZM4.93472 24.2047V23.6323L3.87988 22.9367V23.5096L4.93472 24.2047ZM4.93472 23.4077V22.8342L3.95174 22.1859L4.07711 22.0442L4.93472 22.6096V21.9953H3.87988V22.7121L4.93472 23.4077ZM3.87988 31.712V32.0656H4.41648L3.87988 31.712Z" fill="#A3F1FF"/>
<path d="M5.20928 21.1819H6.45714H6.4755V21.2105V21.707V21.7357H6.45714H5.20928H5.19092V21.707V21.2105V21.1819H5.20928ZM6.43826 21.2392H5.22764V21.6783H6.43878V21.2392H6.43826Z" fill="#A3F1FF"/>
<path fill-rule="evenodd" clip-rule="evenodd" d="M5.7417 21.3215H6.34491V21.596H5.7417V21.3215Z" fill="#A3F1FF"/>
<path d="M5.20976 20.5341H6.45763H6.47599V20.5628V21.0592V21.0879H6.45763H5.20976H5.19141V21.0592V20.5628V20.5341H5.20976ZM6.43927 20.592H5.22812V21.0311H6.43927V20.592Z" fill="#A3F1FF"/>
<path d="M5.20976 19.8868H6.45868H6.47704V19.9155V20.412V20.4406H6.45868H5.20976H5.19141V20.412V19.9155V19.8868H5.20976ZM6.43979 19.9442H5.22812V20.3833H6.44032V19.9442H6.43979Z" fill="#A3F1FF"/>
<path fill-rule="evenodd" clip-rule="evenodd" d="M5.53125 20.6737H6.3448V20.9482H5.53125V20.6737Z" fill="#A3F1FF"/>
<path fill-rule="evenodd" clip-rule="evenodd" d="M5.33008 20.0265H6.34452V20.301H5.33008V20.0265Z" fill="#A3F1FF"/>
<path fill-rule="evenodd" clip-rule="evenodd" d="M3.88198 21.2419L5.19121 19.8884V20.6684L4.23761 21.6332L5.19121 20.6684V21.7357L4.93524 21.9948H3.87988L3.88198 21.2419Z" fill="#A3F1FF"/>
<path fill-rule="evenodd" clip-rule="evenodd" d="M3.87988 32.0662H4.93472V35.3428H3.87988V32.0662Z" fill="#A3F1FF"/>
<path fill-rule="evenodd" clip-rule="evenodd" d="M96.9453 35.3513V35.8015L98.0001 36.4976V35.9295L97.1231 35.3513H96.9453ZM96.9453 36.0261V36.6033L98.0001 37.2988V36.7222L96.9453 36.0261ZM96.9453 36.8279V37.4114L98.0001 38.1054V37.5234L96.9453 36.8279ZM96.9453 37.6355V38.1999L98.0001 38.8955V38.3295L96.9453 37.6355ZM96.9453 38.4245V38.9852L98.0001 39.6829V39.1201L96.9453 38.4245ZM96.9453 39.2098V39.7933L98.0001 40.4894V39.9075L96.9453 39.2098ZM96.9453 40.0179V40.5855L98.0001 41.2827V40.714L96.9453 40.0179ZM96.9453 40.8101V41.3852L98.0001 42.0818V41.5068L96.9453 40.8101ZM96.9453 41.6098V42.1816L98.0001 42.8788V42.3064L96.9453 41.6098ZM96.9453 42.4068V42.9887L98.0001 43.6843V43.1039L96.9453 42.4068ZM96.9453 43.2128V43.7851L98.0001 44.4807V43.9078L96.9453 43.2128ZM96.9453 44.0097V44.5832L97.9283 45.2315L97.8029 45.3733L96.9453 44.8078V45.4221H98.0001V44.7053L96.9453 44.0097ZM98.0001 35.7054V35.3518H97.4636L98.0001 35.7054Z" fill="#A3F1FF"/>
<path d="M96.671 46.2356H95.4231H95.4048V46.2069V45.7104V45.6818H95.4231H96.671H96.6894V45.7104V46.2069V46.2356H96.671ZM95.4415 46.1782H96.6527V45.7391H95.4415V46.1782Z" fill="#A3F1FF"/>
<path fill-rule="evenodd" clip-rule="evenodd" d="M96.1378 46.0959H95.5352V45.8214H96.1378V46.0959Z" fill="#A3F1FF"/>
<path d="M96.6695 46.8828H95.4217H95.4033V46.8541V46.3577V46.329H95.4217H96.6695H96.6879V46.3577V46.8541V46.8828H96.6695ZM95.44 46.8255H96.6512V46.3864H95.44V46.8255Z" fill="#A3F1FF"/>
<path d="M96.6701 47.5306H95.4212H95.4028V47.5019V47.0055V46.9768H95.4212H96.6701H96.6885V47.0055V47.5019V47.5306H96.6701ZM95.4396 47.4733H96.6517V47.0342H95.4396V47.4733Z" fill="#A3F1FF"/>
<path fill-rule="evenodd" clip-rule="evenodd" d="M96.3487 46.7437H95.5352V46.4692H96.3487V46.7437Z" fill="#A3F1FF"/>
<path fill-rule="evenodd" clip-rule="evenodd" d="M96.5496 47.391H95.5347V47.1165H96.5496V47.391Z" fill="#A3F1FF"/>
<path fill-rule="evenodd" clip-rule="evenodd" d="M97.9978 46.1756L96.688 47.529V46.749L97.6421 45.7842L96.688 46.749V45.6818L96.944 45.4226H97.9998L97.9978 46.1756Z" fill="#A3F1FF"/>
<path fill-rule="evenodd" clip-rule="evenodd" d="M96.9453 32.0746V31.6244L98.0001 30.9283V31.4964L97.1231 32.0746H96.9453ZM96.9453 31.3998V30.8226L98.0001 30.1271V30.7037L96.9453 31.3998ZM96.9453 30.5986V30.015L98.0001 29.321V29.903L96.9453 30.5986ZM96.9453 29.7904V29.226L98.0001 28.5304V29.0964L96.9453 29.7904ZM96.9453 29.0019V28.4412L98.0001 27.7435V28.3064L96.9453 29.0019ZM96.9453 28.2166V27.6331L98.0001 26.937V27.5189L96.9453 28.2166ZM96.9453 27.4085V26.8409L98.0001 26.1437V26.7124L96.9453 27.4085ZM96.9453 26.6163V26.0413L98.0001 25.3446V25.9197L96.9453 26.6163ZM96.9453 25.8161V25.2443L98.0001 24.5471V25.1195L96.9453 25.8161ZM96.9453 25.0197V24.4377L98.0001 23.7422V24.3225L96.9453 25.0197ZM96.9453 24.2137V23.6413L98.0001 22.9457V23.5186L96.9453 24.2137ZM96.9453 23.4162V22.8427L97.9283 22.1944L97.8029 22.0526L96.9453 22.6181V22.0038H98.0001V22.7206L96.9453 23.4162ZM98.0001 31.721V32.0746H97.4636L98.0001 31.721Z" fill="#A3F1FF"/>
<path d="M96.671 21.1909H95.4231H95.4048V21.2196V21.716V21.7447H95.4231H96.671H96.6894V21.716V21.2196V21.1909H96.671ZM95.4415 21.2482H96.6527V21.6873H95.4415V21.2482Z" fill="#A3F1FF"/>
<path fill-rule="evenodd" clip-rule="evenodd" d="M96.1378 21.33H95.5352V21.6045H96.1378V21.33Z" fill="#A3F1FF"/>
<path d="M96.6695 20.5431H95.4217H95.4033V20.5718V21.0682V21.0969H95.4217H96.6695H96.6879V21.0682V20.5718V20.5431H96.6695ZM95.44 20.6005H96.6512V21.0396H95.44V20.6005Z" fill="#A3F1FF"/>
<path d="M96.6701 19.8958H95.4212H95.4028V19.9245V20.421V20.4496H95.4212H96.6701H96.6885V20.421V19.9245V19.8958H96.6701ZM95.4396 19.9532H96.6517V20.3923H95.4396V19.9532Z" fill="#A3F1FF"/>
<path fill-rule="evenodd" clip-rule="evenodd" d="M96.3487 20.6827H95.5352V20.9573H96.3487V20.6827Z" fill="#A3F1FF"/>
<path fill-rule="evenodd" clip-rule="evenodd" d="M96.5496 20.035H95.5347V20.3095H96.5496V20.035Z" fill="#A3F1FF"/>
<path fill-rule="evenodd" clip-rule="evenodd" d="M97.9978 21.2509L96.688 19.8975V20.6775L97.6421 21.6422L96.688 20.6775V21.7442L96.944 22.0038H97.9998L97.9978 21.2509Z" fill="#A3F1FF"/>
<path fill-rule="evenodd" clip-rule="evenodd" d="M98.0001 32.0746H96.9453V35.3512H98.0001V32.0746Z" fill="#A3F1FF"/>
<g opacity="0.2">
<path opacity="0.01" d="M4.53585 48.4832C7.0269 48.4832 9.0463 41.599 9.0463 33.1069C9.0463 24.6148 7.0269 17.7306 4.53585 17.7306C2.04479 17.7306 0.0253906 24.6148 0.0253906 33.1069C0.0253906 41.599 2.04479 48.4832 4.53585 48.4832Z" fill="#1A276C"/>
<path opacity="0.0123" d="M4.53557 48.3977C7.01272 48.3977 9.02085 41.5518 9.02085 33.1069C9.02085 24.662 7.01272 17.8161 4.53557 17.8161C2.05842 17.8161 0.050293 24.662 0.050293 33.1069C0.050293 41.5518 2.05842 48.3977 4.53557 48.3977Z" fill="#1A286D"/>
<path opacity="0.0184" d="M4.53578 48.3122C6.99903 48.3122 8.99588 41.5045 8.99588 33.1069C8.99588 24.7092 6.99903 17.9016 4.53578 17.9016C2.07254 17.9016 0.0756836 24.7092 0.0756836 33.1069C0.0756836 41.5045 2.07254 48.3122 4.53578 48.3122Z" fill="#1A296E"/>
<path opacity="0.0245" d="M4.53551 48.2262C6.98485 48.2262 8.97043 41.457 8.97043 33.1069C8.97043 24.7567 6.98485 17.9876 4.53551 17.9876C2.08617 17.9876 0.100586 24.7567 0.100586 33.1069C0.100586 41.457 2.08617 48.2262 4.53551 48.2262Z" fill="#192A6F"/>
<path opacity="0.0307" d="M4.53572 48.1407C6.97116 48.1407 8.94547 41.4098 8.94547 33.1069C8.94547 24.8039 6.97116 18.0731 4.53572 18.0731C2.10029 18.0731 0.125977 24.8039 0.125977 33.1069C0.125977 41.4098 2.10029 48.1407 4.53572 48.1407Z" fill="#192B70"/>
<path opacity="0.0368" d="M4.53545 48.0547C6.95698 48.0547 8.92002 41.3623 8.92002 33.1069C8.92002 24.8514 6.95698 18.1591 4.53545 18.1591C2.11392 18.1591 0.150879 24.8514 0.150879 33.1069C0.150879 41.3623 2.11392 48.0547 4.53545 48.0547Z" fill="#192C70"/>
<path opacity="0.0429" d="M4.5357 47.9692C6.94361 47.9692 8.89561 41.3151 8.89561 33.1069C8.89561 24.8987 6.94361 18.2446 4.5357 18.2446C2.12778 18.2446 0.175781 24.8987 0.175781 33.1069C0.175781 41.3151 2.12778 47.9692 4.5357 47.9692Z" fill="#192D71"/>
<path opacity="0.0491" d="M4.53542 47.8837C6.92943 47.8837 8.87016 41.2679 8.87016 33.1069C8.87016 24.9459 6.92943 18.33 4.53542 18.33C2.14141 18.33 0.200684 24.9459 0.200684 33.1069C0.200684 41.2679 2.14141 47.8837 4.53542 47.8837Z" fill="#192E72"/>
<path opacity="0.0552" d="M4.53563 47.7977C6.91574 47.7977 8.84519 41.2204 8.84519 33.1069C8.84519 24.9933 6.91574 18.416 4.53563 18.416C2.15553 18.416 0.226074 24.9933 0.226074 33.1069C0.226074 41.2204 2.15553 47.7977 4.53563 47.7977Z" fill="#192F73"/>
<path opacity="0.0613" d="M4.53585 47.7122C6.90205 47.7122 8.82023 41.1732 8.82023 33.1069C8.82023 25.0406 6.90205 18.5016 4.53585 18.5016C2.16965 18.5016 0.251465 25.0406 0.251465 33.1069C0.251465 41.1732 2.16965 47.7122 4.53585 47.7122Z" fill="#183074"/>
<path opacity="0.0675" d="M4.53557 47.6262C6.88787 47.6262 8.79478 41.1257 8.79478 33.1069C8.79478 25.0881 6.88787 18.5876 4.53557 18.5876C2.18328 18.5876 0.276367 25.0881 0.276367 33.1069C0.276367 41.1257 2.18328 47.6262 4.53557 47.6262Z" fill="#183175"/>
<path opacity="0.0736" d="M4.53579 47.5407C6.87417 47.5407 8.76981 41.0784 8.76981 33.1069C8.76981 25.1353 6.87417 18.673 4.53579 18.673C2.1974 18.673 0.301758 25.1353 0.301758 33.1069C0.301758 41.0784 2.1974 47.5407 4.53579 47.5407Z" fill="#183276"/>
<path opacity="0.0798" d="M4.53551 47.4552C6.85999 47.4552 8.74436 41.0313 8.74436 33.1069C8.74436 25.1825 6.85999 18.7585 4.53551 18.7585C2.21103 18.7585 0.32666 25.1825 0.32666 33.1069C0.32666 41.0313 2.21103 47.4552 4.53551 47.4552Z" fill="#183377"/>
<path opacity="0.0859" d="M4.53572 47.3692C6.8463 47.3692 8.71939 40.9837 8.71939 33.1069C8.71939 25.23 6.8463 18.8445 4.53572 18.8445C2.22514 18.8445 0.352051 25.23 0.352051 33.1069C0.352051 40.9837 2.22514 47.3692 4.53572 47.3692Z" fill="#183478"/>
<path opacity="0.092" d="M4.53545 47.2837C6.83212 47.2837 8.69394 40.9365 8.69394 33.1069C8.69394 25.2772 6.83212 18.93 4.53545 18.93C2.23877 18.93 0.376953 25.2772 0.376953 33.1069C0.376953 40.9365 2.23877 47.2837 4.53545 47.2837Z" fill="#183579"/>
<path opacity="0.0982" d="M4.53566 47.1977C6.81843 47.1977 8.66898 40.889 8.66898 33.1069C8.66898 25.3247 6.81843 19.0161 4.53566 19.0161C2.25289 19.0161 0.402344 25.3247 0.402344 33.1069C0.402344 40.889 2.25289 47.1977 4.53566 47.1977Z" fill="#17367A"/>
<path opacity="0.1043" d="M4.53587 47.1122C6.80474 47.1122 8.64401 40.8418 8.64401 33.1069C8.64401 25.3719 6.80474 19.1015 4.53587 19.1015C2.26701 19.1015 0.427734 25.3719 0.427734 33.1069C0.427734 40.8418 2.26701 47.1122 4.53587 47.1122Z" fill="#17377A"/>
<path opacity="0.1104" d="M4.5356 47.0267C6.79056 47.0267 8.61856 40.7946 8.61856 33.1069C8.61856 25.4191 6.79056 19.187 4.5356 19.187C2.28064 19.187 0.452637 25.4191 0.452637 33.1069C0.452637 40.7946 2.28064 47.0267 4.5356 47.0267Z" fill="#17387B"/>
<path opacity="0.1166" d="M4.53581 46.9407C6.77686 46.9407 8.5936 40.7471 8.5936 33.1069C8.5936 25.4667 6.77686 19.273 4.53581 19.273C2.29476 19.273 0.478027 25.4667 0.478027 33.1069C0.478027 40.7471 2.29476 46.9407 4.53581 46.9407Z" fill="#17397C"/>
<path opacity="0.1227" d="M4.53557 46.8552C6.76301 46.8552 8.5687 40.6999 8.5687 33.1069C8.5687 25.5139 6.76301 19.3585 4.53557 19.3585C2.30814 19.3585 0.502441 25.5139 0.502441 33.1069C0.502441 40.6999 2.30814 46.8552 4.53557 46.8552Z" fill="#173A7D"/>
<path opacity="0.1288" d="M4.53579 46.7692C6.74932 46.7692 8.54374 40.6524 8.54374 33.1069C8.54374 25.5614 6.74932 19.4445 4.53579 19.4445C2.32225 19.4445 0.527832 25.5614 0.527832 33.1069C0.527832 40.6524 2.32225 46.7692 4.53579 46.7692Z" fill="#173B7E"/>
<path opacity="0.135" d="M4.53551 46.6837C6.73514 46.6837 8.51829 40.6052 8.51829 33.1069C8.51829 25.6086 6.73514 19.53 4.53551 19.53C2.33588 19.53 0.552734 25.6086 0.552734 33.1069C0.552734 40.6052 2.33588 46.6837 4.53551 46.6837Z" fill="#163C7F"/>
<path opacity="0.1411" d="M4.53572 46.5982C6.72144 46.5982 8.49332 40.5579 8.49332 33.1069C8.49332 25.6558 6.72144 19.6155 4.53572 19.6155C2.35 19.6155 0.578125 25.6558 0.578125 33.1069C0.578125 40.5579 2.35 46.5982 4.53572 46.5982Z" fill="#163D80"/>
<path opacity="0.1472" d="M4.53545 46.5122C6.70726 46.5122 8.46787 40.5104 8.46787 33.1069C8.46787 25.7033 6.70726 19.7015 4.53545 19.7015C2.36363 19.7015 0.603027 25.7033 0.603027 33.1069C0.603027 40.5104 2.36363 46.5122 4.53545 46.5122Z" fill="#163E81"/>
<path opacity="0.1534" d="M4.53566 46.4267C6.69357 46.4267 8.44291 40.4632 8.44291 33.1069C8.44291 25.7505 6.69357 19.787 4.53566 19.787C2.37775 19.787 0.628418 25.7505 0.628418 33.1069C0.628418 40.4632 2.37775 46.4267 4.53566 46.4267Z" fill="#163F82"/>
<path opacity="0.1595" d="M4.53587 46.3407C6.67988 46.3407 8.41794 40.4157 8.41794 33.1069C8.41794 25.798 6.67988 19.873 4.53587 19.873C2.39187 19.873 0.653809 25.798 0.653809 33.1069C0.653809 40.4157 2.39187 46.3407 4.53587 46.3407Z" fill="#164083"/>
<path opacity="0.1656" d="M4.5356 46.2552C6.6657 46.2552 8.39249 40.3685 8.39249 33.1069C8.39249 25.8452 6.6657 19.9585 4.5356 19.9585C2.4055 19.9585 0.678711 25.8452 0.678711 33.1069C0.678711 40.3685 2.4055 46.2552 4.5356 46.2552Z" fill="#164184"/>
<path opacity="0.1718" d="M4.53581 46.1697C6.65201 46.1697 8.36752 40.3213 8.36752 33.1069C8.36752 25.8925 6.65201 20.044 4.53581 20.044C2.41962 20.044 0.704102 25.8925 0.704102 33.1069C0.704102 40.3213 2.41962 46.1697 4.53581 46.1697Z" fill="#164284"/>
<path opacity="0.1779" d="M4.53554 46.0837C6.63783 46.0837 8.34207 40.2738 8.34207 33.1069C8.34207 25.94 6.63783 20.13 4.53554 20.13C2.43325 20.13 0.729004 25.94 0.729004 33.1069C0.729004 40.2738 2.43325 46.0837 4.53554 46.0837Z" fill="#154385"/>
<path opacity="0.184" d="M4.53575 45.9982C6.62414 45.9982 8.31711 40.2266 8.31711 33.1069C8.31711 25.9872 6.62414 20.2155 4.53575 20.2155C2.44737 20.2155 0.754395 25.9872 0.754395 33.1069C0.754395 40.2266 2.44737 45.9982 4.53575 45.9982Z" fill="#154486"/>
<path opacity="0.1902" d="M4.53548 45.9122C6.60995 45.9122 8.29165 40.1791 8.29165 33.1069C8.29165 26.0347 6.60995 20.3015 4.53548 20.3015C2.461 20.3015 0.779297 26.0347 0.779297 33.1069C0.779297 40.1791 2.461 45.9122 4.53548 45.9122Z" fill="#154587"/>
<path opacity="0.1963" d="M4.53569 45.8267C6.59626 45.8267 8.26669 40.1319 8.26669 33.1069C8.26669 26.0819 6.59626 20.387 4.53569 20.387C2.47511 20.387 0.804688 26.0819 0.804688 33.1069C0.804688 40.1319 2.47511 45.8267 4.53569 45.8267Z" fill="#154688"/>
<path opacity="0.2025" d="M4.53541 45.7413C6.58208 45.7413 8.24124 40.0847 8.24124 33.1069C8.24124 26.1291 6.58208 20.4725 4.53541 20.4725C2.48874 20.4725 0.82959 26.1291 0.82959 33.1069C0.82959 40.0847 2.48874 45.7413 4.53541 45.7413Z" fill="#154789"/>
<path opacity="0.2086" d="M4.53566 45.6552C6.56872 45.6552 8.21683 40.0371 8.21683 33.1069C8.21683 26.1766 6.56872 20.5585 4.53566 20.5585C2.50261 20.5585 0.854492 26.1766 0.854492 33.1069C0.854492 40.0371 2.50261 45.6552 4.53566 45.6552Z" fill="#15488A"/>
<path opacity="0.2147" d="M4.53587 45.5698C6.55502 45.5698 8.19187 39.9899 8.19187 33.1069C8.19187 26.2238 6.55502 20.644 4.53587 20.644C2.51673 20.644 0.879883 26.2238 0.879883 33.1069C0.879883 39.9899 2.51673 45.5698 4.53587 45.5698Z" fill="#14498B"/>
<path opacity="0.2209" d="M4.5356 45.4837C6.54084 45.4837 8.16642 39.9424 8.16642 33.1069C8.16642 26.2713 6.54084 20.73 4.5356 20.73C2.53036 20.73 0.904785 26.2713 0.904785 33.1069C0.904785 39.9424 2.53036 45.4837 4.5356 45.4837Z" fill="#144A8C"/>
<path opacity="0.227" d="M4.53581 45.3982C6.52715 45.3982 8.14145 39.8952 8.14145 33.1069C8.14145 26.3185 6.52715 20.8155 4.53581 20.8155C2.54447 20.8155 0.930176 26.3185 0.930176 33.1069C0.930176 39.8952 2.54447 45.3982 4.53581 45.3982Z" fill="#144B8D"/>
<path opacity="0.2331" d="M4.53554 45.3128C6.51297 45.3128 8.116 39.848 8.116 33.1069C8.116 26.3658 6.51297 20.901 4.53554 20.901C2.5581 20.901 0.955078 26.3658 0.955078 33.1069C0.955078 39.848 2.5581 45.3128 4.53554 45.3128Z" fill="#144C8E"/>
<path opacity="0.2393" d="M4.53575 45.2267C6.49928 45.2267 8.09103 39.8005 8.09103 33.1069C8.09103 26.4132 6.49928 20.987 4.53575 20.987C2.57222 20.987 0.980469 26.4132 0.980469 33.1069C0.980469 39.8005 2.57222 45.2267 4.53575 45.2267Z" fill="#144D8E"/>
<path opacity="0.2454" d="M4.53548 45.1412C6.4851 45.1412 8.06558 39.7533 8.06558 33.1069C8.06558 26.4605 6.4851 21.0725 4.53548 21.0725C2.58585 21.0725 1.00537 26.4605 1.00537 33.1069C1.00537 39.7533 2.58585 45.1412 4.53548 45.1412Z" fill="#144E8F"/>
<path opacity="0.2515" d="M4.53569 45.0552C6.47141 45.0552 8.04062 39.7058 8.04062 33.1069C8.04062 26.508 6.47141 21.1585 4.53569 21.1585C2.59997 21.1585 1.03076 26.508 1.03076 33.1069C1.03076 39.7058 2.59997 45.0552 4.53569 45.0552Z" fill="#134F90"/>
<path opacity="0.2577" d="M4.53541 44.9697C6.45723 44.9697 8.01516 39.6586 8.01516 33.1069C8.01516 26.5552 6.45723 21.244 4.53541 21.244C2.6136 21.244 1.05566 26.5552 1.05566 33.1069C1.05566 39.6586 2.6136 44.9697 4.53541 44.9697Z" fill="#135091"/>
<path opacity="0.2638" d="M4.53563 44.8843C6.44353 44.8843 7.9902 39.6113 7.9902 33.1069C7.9902 26.6024 6.44353 21.3295 4.53563 21.3295C2.62772 21.3295 1.08105 26.6024 1.08105 33.1069C1.08105 39.6113 2.62772 44.8843 4.53563 44.8843Z" fill="#135192"/>
<path opacity="0.2699" d="M4.53584 44.7983C6.42984 44.7983 7.96523 39.5638 7.96523 33.1069C7.96523 26.6499 6.42984 21.4155 4.53584 21.4155C2.64184 21.4155 1.10645 26.6499 1.10645 33.1069C1.10645 39.5638 2.64184 44.7983 4.53584 44.7983Z" fill="#135293"/>
<path opacity="0.2761" d="M4.53556 44.7128C6.41566 44.7128 7.93978 39.5166 7.93978 33.1069C7.93978 26.6971 6.41566 21.501 4.53556 21.501C2.65547 21.501 1.13135 26.6971 1.13135 33.1069C1.13135 39.5166 2.65547 44.7128 4.53556 44.7128Z" fill="#135394"/>
<path opacity="0.2822" d="M4.53578 44.6268C6.40197 44.6268 7.91482 39.4691 7.91482 33.1069C7.91482 26.7446 6.40197 21.587 4.53578 21.587C2.66959 21.587 1.15674 26.7446 1.15674 33.1069C1.15674 39.4691 2.66959 44.6268 4.53578 44.6268Z" fill="#135495"/>
<path opacity="0.2883" d="M4.53554 44.5413C6.38811 44.5413 7.88992 39.4219 7.88992 33.1069C7.88992 26.7918 6.38811 21.6725 4.53554 21.6725C2.68296 21.6725 1.18115 26.7918 1.18115 33.1069C1.18115 39.4219 2.68296 44.5413 4.53554 44.5413Z" fill="#135596"/>
<path opacity="0.2945" d="M4.53575 44.4558C6.37442 44.4558 7.86496 39.3747 7.86496 33.1069C7.86496 26.839 6.37442 21.758 4.53575 21.758C2.69708 21.758 1.20654 26.839 1.20654 33.1069C1.20654 39.3747 2.69708 44.4558 4.53575 44.4558Z" fill="#125697"/>
<path opacity="0.3006" d="M4.53548 44.3698C6.36024 44.3698 7.83951 39.3272 7.83951 33.1069C7.83951 26.8866 6.36024 21.844 4.53548 21.844C2.71071 21.844 1.23145 26.8866 1.23145 33.1069C1.23145 39.3272 2.71071 44.3698 4.53548 44.3698Z" fill="#125797"/>
<path opacity="0.3067" d="M4.53569 44.2843C6.34655 44.2843 7.81454 39.28 7.81454 33.1069C7.81454 26.9338 6.34655 21.9295 4.53569 21.9295C2.72483 21.9295 1.25684 26.9338 1.25684 33.1069C1.25684 39.28 2.72483 44.2843 4.53569 44.2843Z" fill="#125898"/>
<path opacity="0.3129" d="M4.53541 44.1983C6.33237 44.1983 7.78909 39.2325 7.78909 33.1069C7.78909 26.9813 6.33237 22.0155 4.53541 22.0155C2.73846 22.0155 1.28174 26.9813 1.28174 33.1069C1.28174 39.2325 2.73846 44.1983 4.53541 44.1983Z" fill="#125999"/>
<path opacity="0.319" d="M4.53563 44.1128C6.31868 44.1128 7.76413 39.1853 7.76413 33.1069C7.76413 27.0285 6.31868 22.101 4.53563 22.101C2.75258 22.101 1.30713 27.0285 1.30713 33.1069C1.30713 39.1853 2.75258 44.1128 4.53563 44.1128Z" fill="#125A9A"/>
<path opacity="0.3252" d="M4.53584 44.0273C6.30499 44.0273 7.73916 39.1381 7.73916 33.1069C7.73916 27.0757 6.30499 22.1865 4.53584 22.1865C2.7667 22.1865 1.33252 27.0757 1.33252 33.1069C1.33252 39.1381 2.7667 44.0273 4.53584 44.0273Z" fill="#125B9B"/>
<path opacity="0.3313" d="M4.53557 43.9413C6.2908 43.9413 7.71371 39.0906 7.71371 33.1069C7.71371 27.1232 6.2908 22.2725 4.53557 22.2725C2.78033 22.2725 1.35742 27.1232 1.35742 33.1069C1.35742 39.0906 2.78033 43.9413 4.53557 43.9413Z" fill="#115C9C"/>
<path opacity="0.3374" d="M4.53578 43.8558C6.27711 43.8558 7.68874 39.0433 7.68874 33.1069C7.68874 27.1704 6.27711 22.358 4.53578 22.358C2.79444 22.358 1.38281 27.1704 1.38281 33.1069C1.38281 39.0433 2.79444 43.8558 4.53578 43.8558Z" fill="#115D9D"/>
<path opacity="0.3436" d="M4.5355 43.7698C6.26293 43.7698 7.66329 38.9958 7.66329 33.1069C7.66329 27.2179 6.26293 22.444 4.5355 22.444C2.80807 22.444 1.40771 27.2179 1.40771 33.1069C1.40771 38.9958 2.80807 43.7698 4.5355 43.7698Z" fill="#115E9E"/>
<path opacity="0.3497" d="M4.53572 43.6843C6.24924 43.6843 7.63833 38.9486 7.63833 33.1069C7.63833 27.2651 6.24924 22.5295 4.53572 22.5295C2.82219 22.5295 1.43311 27.2651 1.43311 33.1069C1.43311 38.9486 2.82219 43.6843 4.53572 43.6843Z" fill="#115F9F"/>
<path opacity="0.3558" d="M4.53544 43.5988C6.23506 43.5988 7.61287 38.9014 7.61287 33.1069C7.61287 27.3124 6.23506 22.615 4.53544 22.615C2.83582 22.615 1.45801 27.3124 1.45801 33.1069C1.45801 38.9014 2.83582 43.5988 4.53544 43.5988Z" fill="#1160A0"/>
<path opacity="0.362" d="M4.53565 43.5128C6.22137 43.5128 7.58791 38.8539 7.58791 33.1069C7.58791 27.3598 6.22137 22.701 4.53565 22.701C2.84994 22.701 1.4834 27.3598 1.4834 33.1069C1.4834 38.8539 2.84994 43.5128 4.53565 43.5128Z" fill="#1161A1"/>
<path opacity="0.3681" d="M4.53541 43.4273C6.20751 43.4273 7.56302 38.8067 7.56302 33.1069C7.56302 27.407 6.20751 22.7864 4.53541 22.7864C2.86332 22.7864 1.50781 27.407 1.50781 33.1069C1.50781 38.8067 2.86332 43.4273 4.53541 43.4273Z" fill="#1062A1"/>
<path opacity="0.3742" d="M4.53563 43.3413C6.19382 43.3413 7.53805 38.7592 7.53805 33.1069C7.53805 27.4546 6.19382 22.8725 4.53563 22.8725C2.87743 22.8725 1.5332 27.4546 1.5332 33.1069C1.5332 38.7592 2.87743 43.3413 4.53563 43.3413Z" fill="#1063A2"/>
<path opacity="0.3804" d="M4.53584 43.2558C6.18013 43.2558 7.51309 38.712 7.51309 33.1069C7.51309 27.5018 6.18013 22.9579 4.53584 22.9579C2.89155 22.9579 1.55859 27.5018 1.55859 33.1069C1.55859 38.712 2.89155 43.2558 4.53584 43.2558Z" fill="#1064A3"/>
<path opacity="0.3865" d="M4.53557 43.1703C6.16595 43.1703 7.48764 38.6647 7.48764 33.1069C7.48764 27.549 6.16595 23.0434 4.53557 23.0434C2.90518 23.0434 1.5835 27.549 1.5835 33.1069C1.5835 38.6647 2.90518 43.1703 4.53557 43.1703Z" fill="#1065A4"/>
<path opacity="0.3926" d="M4.53578 43.0843C6.15226 43.0843 7.46267 38.6172 7.46267 33.1069C7.46267 27.5965 6.15226 23.1295 4.53578 23.1295C2.9193 23.1295 1.60889 27.5965 1.60889 33.1069C1.60889 38.6172 2.9193 43.0843 4.53578 43.0843Z" fill="#1066A5"/>
<path opacity="0.3988" d="M4.5355 42.9988C6.13808 42.9988 7.43722 38.57 7.43722 33.1069C7.43722 27.6437 6.13808 23.2149 4.5355 23.2149C2.93293 23.2149 1.63379 27.6437 1.63379 33.1069C1.63379 38.57 2.93293 42.9988 4.5355 42.9988Z" fill="#1067A6"/>
<path opacity="0.4049" d="M4.53572 42.9128C6.12438 42.9128 7.41225 38.5225 7.41225 33.1069C7.41225 27.6912 6.12438 23.301 4.53572 23.301C2.94705 23.301 1.65918 27.6912 1.65918 33.1069C1.65918 38.5225 2.94705 42.9128 4.53572 42.9128Z" fill="#0F68A7"/>
<path opacity="0.411" d="M4.53544 42.8273C6.1102 42.8273 7.3868 38.4753 7.3868 33.1069C7.3868 27.7384 6.1102 23.3864 4.53544 23.3864C2.96068 23.3864 1.68408 27.7384 1.68408 33.1069C1.68408 38.4753 2.96068 42.8273 4.53544 42.8273Z" fill="#0F69A8"/>
<path opacity="0.4172" d="M4.53565 42.7418C6.09651 42.7418 7.36184 38.4281 7.36184 33.1069C7.36184 27.7856 6.09651 23.4719 4.53565 23.4719C2.9748 23.4719 1.70947 27.7856 1.70947 33.1069C1.70947 38.4281 2.9748 42.7418 4.53565 42.7418Z" fill="#0F6AA9"/>
<path opacity="0.4233" d="M4.53587 42.6558C6.08282 42.6558 7.33687 38.3806 7.33687 33.1069C7.33687 27.8332 6.08282 23.558 4.53587 23.558C2.98892 23.558 1.73486 27.8332 1.73486 33.1069C1.73486 38.3806 2.98892 42.6558 4.53587 42.6558Z" fill="#0F6BAA"/>
<path opacity="0.4294" d="M4.53559 42.5703C6.06864 42.5703 7.31142 38.3334 7.31142 33.1069C7.31142 27.8804 6.06864 23.6434 4.53559 23.6434C3.00255 23.6434 1.75977 27.8804 1.75977 33.1069C1.75977 38.3334 3.00255 42.5703 4.53559 42.5703Z" fill="#0F6CAB"/>
<path opacity="0.4356" d="M4.53581 42.4843C6.05495 42.4843 7.28646 38.2859 7.28646 33.1069C7.28646 27.9279 6.05495 23.7295 4.53581 23.7295C3.01666 23.7295 1.78516 27.9279 1.78516 33.1069C1.78516 38.2859 3.01666 42.4843 4.53581 42.4843Z" fill="#0F6DAB"/>
<path opacity="0.4417" d="M4.53553 42.3988C6.04077 42.3988 7.261 38.2387 7.261 33.1069C7.261 27.9751 6.04077 23.8149 4.53553 23.8149C3.03029 23.8149 1.81006 27.9751 1.81006 33.1069C1.81006 38.2387 3.03029 42.3988 4.53553 42.3988Z" fill="#0F6EAC"/>
<path opacity="0.4479" d="M4.53574 42.3133C6.02707 42.3133 7.23604 38.1914 7.23604 33.1069C7.23604 28.0223 6.02707 23.9004 4.53574 23.9004C3.04441 23.9004 1.83545 28.0223 1.83545 33.1069C1.83545 38.1914 3.04441 42.3133 4.53574 42.3133Z" fill="#0E6FAD"/>
<path opacity="0.454" d="M4.5355 42.2273C6.01322 42.2273 7.21114 38.144 7.21114 33.1069C7.21114 28.0698 6.01322 23.9865 4.5355 23.9865C3.05779 23.9865 1.85986 28.0698 1.85986 33.1069C1.85986 38.144 3.05779 42.2273 4.5355 42.2273Z" fill="#0E70AE"/>
<path opacity="0.4601" d="M4.53572 42.1418C5.99953 42.1418 7.18618 38.0967 7.18618 33.1069C7.18618 28.117 5.99953 24.0719 4.53572 24.0719C3.07191 24.0719 1.88525 28.117 1.88525 33.1069C1.88525 38.0967 3.07191 42.1418 4.53572 42.1418Z" fill="#0E71AF"/>
<path opacity="0.4663" d="M4.53544 42.0558C5.98535 42.0558 7.16073 38.0492 7.16073 33.1069C7.16073 28.1645 5.98535 24.158 4.53544 24.158C3.08554 24.158 1.91016 28.1645 1.91016 33.1069C1.91016 38.0492 3.08554 42.0558 4.53544 42.0558Z" fill="#0E72B0"/>
<path opacity="0.4724" d="M4.53566 41.9703C5.97165 41.9703 7.13576 38.002 7.13576 33.1069C7.13576 28.2117 5.97165 24.2434 4.53566 24.2434C3.09965 24.2434 1.93555 28.2117 1.93555 33.1069C1.93555 38.002 3.09965 41.9703 4.53566 41.9703Z" fill="#0E73B1"/>
<path opacity="0.4785" d="M4.53587 41.8848C5.95796 41.8848 7.1108 37.9548 7.1108 33.1069C7.1108 28.2589 5.95796 24.3289 4.53587 24.3289C3.11377 24.3289 1.96094 28.2589 1.96094 33.1069C1.96094 37.9548 3.11377 41.8848 4.53587 41.8848Z" fill="#0E74B2"/>
<path opacity="0.4847" d="M4.53559 41.7988C5.94378 41.7988 7.08535 37.9073 7.08535 33.1069C7.08535 28.3064 5.94378 24.4149 4.53559 24.4149C3.1274 24.4149 1.98584 28.3064 1.98584 33.1069C1.98584 37.9073 3.1274 41.7988 4.53559 41.7988Z" fill="#0D75B3"/>
<path opacity="0.4908" d="M4.53581 41.7133C5.93009 41.7133 7.06038 37.8601 7.06038 33.1069C7.06038 28.3537 5.93009 24.5004 4.53581 24.5004C3.14152 24.5004 2.01123 28.3537 2.01123 33.1069C2.01123 37.8601 3.14152 41.7133 4.53581 41.7133Z" fill="#0D76B4"/>
<path opacity="0.4969" d="M4.53553 41.6278C5.91591 41.6278 7.03493 37.8129 7.03493 33.1069C7.03493 28.4009 5.91591 24.5859 4.53553 24.5859C3.15515 24.5859 2.03613 28.4009 2.03613 33.1069C2.03613 37.8129 3.15515 41.6278 4.53553 41.6278Z" fill="#0D77B5"/>
<path opacity="0.5031" d="M4.53574 41.5418C5.90222 41.5418 7.00996 37.7654 7.00996 33.1069C7.00996 28.4484 5.90222 24.6719 4.53574 24.6719C3.16927 24.6719 2.06152 28.4484 2.06152 33.1069C2.06152 37.7654 3.16927 41.5418 4.53574 41.5418Z" fill="#0D78B5"/>
<path opacity="0.5092" d="M4.53547 41.4563C5.88804 41.4563 6.98451 37.7182 6.98451 33.1069C6.98451 28.4956 5.88804 24.7574 4.53547 24.7574C3.1829 24.7574 2.08643 28.4956 2.08643 33.1069C2.08643 37.7182 3.1829 41.4563 4.53547 41.4563Z" fill="#0D79B6"/>
<path opacity="0.5153" d="M4.53568 41.3703C5.87435 41.3703 6.95955 37.6706 6.95955 33.1069C6.95955 28.5431 5.87435 24.8434 4.53568 24.8434C3.19702 24.8434 2.11182 28.5431 2.11182 33.1069C2.11182 37.6706 3.19702 41.3703 4.53568 41.3703Z" fill="#0D7AB7"/>
<path opacity="0.5215" d="M4.53541 41.2848C5.86016 41.2848 6.93409 37.6234 6.93409 33.1069C6.93409 28.5903 5.86016 24.9289 4.53541 24.9289C3.21065 24.9289 2.13672 28.5903 2.13672 33.1069C2.13672 37.6234 3.21065 41.2848 4.53541 41.2848Z" fill="#0C7BB8"/>
<path opacity="0.5276" d="M4.53562 41.1994C5.84647 41.1994 6.90913 37.5762 6.90913 33.1069C6.90913 28.6375 5.84647 25.0144 4.53562 25.0144C3.22477 25.0144 2.16211 28.6375 2.16211 33.1069C2.16211 37.5762 3.22477 41.1994 4.53562 41.1994Z" fill="#0C7CB9"/>
<path opacity="0.5337" d="M4.53587 41.1133C5.83311 41.1133 6.88473 37.5287 6.88473 33.1069C6.88473 28.685 5.83311 25.1004 4.53587 25.1004C3.23863 25.1004 2.18701 28.685 2.18701 33.1069C2.18701 37.5287 3.23863 41.1133 4.53587 41.1133Z" fill="#0C7DBA"/>
<path opacity="0.5399" d="M4.53559 41.0278C5.81893 41.0278 6.85927 37.4815 6.85927 33.1069C6.85927 28.7322 5.81893 25.1859 4.53559 25.1859C3.25226 25.1859 2.21191 28.7322 2.21191 33.1069C2.21191 37.4815 3.25226 41.0278 4.53559 41.0278Z" fill="#0C7EBB"/>
<path opacity="0.546" d="M4.53581 40.9418C5.80523 40.9418 6.83431 37.434 6.83431 33.1069C6.83431 28.7797 5.80523 25.2719 4.53581 25.2719C3.26638 25.2719 2.2373 28.7797 2.2373 33.1069C2.2373 37.434 3.26638 40.9418 4.53581 40.9418Z" fill="#0C7FBC"/>
<path opacity="0.5521" d="M4.53553 40.8563C5.79105 40.8563 6.80886 37.3868 6.80886 33.1069C6.80886 28.8269 5.79105 25.3574 4.53553 25.3574C3.28001 25.3574 2.26221 28.8269 2.26221 33.1069C2.26221 37.3868 3.28001 40.8563 4.53553 40.8563Z" fill="#0C80BD"/>
<path opacity="0.5583" d="M4.53574 40.7708C5.77736 40.7708 6.78389 37.3396 6.78389 33.1069C6.78389 28.8742 5.77736 25.4429 4.53574 25.4429C3.29413 25.4429 2.2876 28.8742 2.2876 33.1069C2.2876 37.3396 3.29413 40.7708 4.53574 40.7708Z" fill="#0B81BE"/>
<path opacity="0.5644" d="M4.53547 40.6848C5.76318 40.6848 6.75844 37.2921 6.75844 33.1069C6.75844 28.9217 5.76318 25.5289 4.53547 25.5289C3.30776 25.5289 2.3125 28.9217 2.3125 33.1069C2.3125 37.2921 3.30776 40.6848 4.53547 40.6848Z" fill="#0B82BF"/>
<path opacity="0.5706" d="M4.53568 40.5993C5.74949 40.5993 6.73347 37.2449 6.73347 33.1069C6.73347 28.9689 5.74949 25.6144 4.53568 25.6144C3.32188 25.6144 2.33789 28.9689 2.33789 33.1069C2.33789 37.2449 3.32188 40.5993 4.53568 40.5993Z" fill="#0B83BF"/>
<path opacity="0.5767" d="M4.53541 40.5133C5.73531 40.5133 6.70802 37.1974 6.70802 33.1069C6.70802 29.0164 5.73531 25.7004 4.53541 25.7004C3.33551 25.7004 2.36279 29.0164 2.36279 33.1069C2.36279 37.1974 3.33551 40.5133 4.53541 40.5133Z" fill="#0B84C0"/>
<path opacity="0.5828" d="M4.53562 40.4279C5.72162 40.4279 6.68306 37.1501 6.68306 33.1069C6.68306 29.0636 5.72162 25.7859 4.53562 25.7859C3.34962 25.7859 2.38818 29.0636 2.38818 33.1069C2.38818 37.1501 3.34962 40.4279 4.53562 40.4279Z" fill="#0B85C1"/>
<path opacity="0.589" d="M4.53583 40.3424C5.70792 40.3424 6.65809 37.1029 6.65809 33.1069C6.65809 29.1108 5.70792 25.8714 4.53583 25.8714C3.36374 25.8714 2.41357 29.1108 2.41357 33.1069C2.41357 37.1029 3.36374 40.3424 4.53583 40.3424Z" fill="#0B86C2"/>
<path opacity="0.5951" d="M4.53556 40.2564C5.69374 40.2564 6.63264 37.0554 6.63264 33.1069C6.63264 29.1583 5.69374 25.9574 4.53556 25.9574C3.37737 25.9574 2.43848 29.1583 2.43848 33.1069C2.43848 37.0554 3.37737 40.2564 4.53556 40.2564Z" fill="#0B87C3"/>
<path opacity="0.6012" d="M4.53577 40.1709C5.68005 40.1709 6.60767 37.0082 6.60767 33.1069C6.60767 29.2055 5.68005 26.0429 4.53577 26.0429C3.39149 26.0429 2.46387 29.2055 2.46387 33.1069C2.46387 37.0082 3.39149 40.1709 4.53577 40.1709Z" fill="#0A88C4"/>
<path opacity="0.6074" d="M4.5355 40.0849C5.66587 40.0849 6.58222 36.9607 6.58222 33.1069C6.58222 29.2531 5.66587 26.1289 4.5355 26.1289C3.40512 26.1289 2.48877 29.2531 2.48877 33.1069C2.48877 36.9607 3.40512 40.0849 4.5355 40.0849Z" fill="#0A89C5"/>
<path opacity="0.6135" d="M4.53575 39.9994C5.65251 39.9994 6.55782 36.9135 6.55782 33.1069C6.55782 29.3003 5.65251 26.2144 4.53575 26.2144C3.41899 26.2144 2.51367 29.3003 2.51367 33.1069C2.51367 36.9135 3.41899 39.9994 4.53575 39.9994Z" fill="#0A8AC6"/>
<path opacity="0.6196" d="M4.53547 39.9139C5.63833 39.9139 6.53237 36.8663 6.53237 33.1069C6.53237 29.3475 5.63833 26.2999 4.53547 26.2999C3.43261 26.2999 2.53857 29.3475 2.53857 33.1069C2.53857 36.8663 3.43261 39.9139 4.53547 39.9139Z" fill="#0A8BC7"/>
<path opacity="0.6258" d="M4.53568 39.8279C5.62463 39.8279 6.5074 36.8188 6.5074 33.1069C6.5074 29.395 5.62463 26.3859 4.53568 26.3859C3.44673 26.3859 2.56396 29.395 2.56396 33.1069C2.56396 36.8188 3.44673 39.8279 4.53568 39.8279Z" fill="#0A8CC8"/>
<path opacity="0.6319" d="M4.53541 39.7424C5.61045 39.7424 6.48195 36.7716 6.48195 33.1069C6.48195 29.4422 5.61045 26.4714 4.53541 26.4714C3.46036 26.4714 2.58887 29.4422 2.58887 33.1069C2.58887 36.7716 3.46036 39.7424 4.53541 39.7424Z" fill="#0A8DC9"/>
<path opacity="0.638" d="M4.53562 39.6563C5.59676 39.6563 6.45698 36.724 6.45698 33.1069C6.45698 29.4897 5.59676 26.5574 4.53562 26.5574C3.47448 26.5574 2.61426 29.4897 2.61426 33.1069C2.61426 36.724 3.47448 39.6563 4.53562 39.6563Z" fill="#098EC9"/>
<path opacity="0.6442" d="M4.53583 39.5709C5.58307 39.5709 6.43202 36.6769 6.43202 33.1069C6.43202 29.5369 5.58307 26.6429 4.53583 26.6429C3.4886 26.6429 2.63965 29.5369 2.63965 33.1069C2.63965 36.6769 3.4886 39.5709 4.53583 39.5709Z" fill="#098FCA"/>
<path opacity="0.6503" d="M4.53556 39.4854C5.56889 39.4854 6.40657 36.6296 6.40657 33.1069C6.40657 29.5841 5.56889 26.7284 4.53556 26.7284C3.50223 26.7284 2.66455 29.5841 2.66455 33.1069C2.66455 36.6296 3.50223 39.4854 4.53556 39.4854Z" fill="#0990CB"/>
<path opacity="0.6564" d="M4.53577 39.3994C5.5552 39.3994 6.3816 36.5821 6.3816 33.1069C6.3816 29.6316 5.5552 26.8144 4.53577 26.8144C3.51635 26.8144 2.68994 29.6316 2.68994 33.1069C2.68994 36.5821 3.51635 39.3994 4.53577 39.3994Z" fill="#0991CC"/>
<path opacity="0.6626" d="M4.5355 39.3139C5.54102 39.3139 6.35615 36.5349 6.35615 33.1069C6.35615 29.6788 5.54102 26.8999 4.5355 26.8999C3.52998 26.8999 2.71484 29.6788 2.71484 33.1069C2.71484 36.5349 3.52998 39.3139 4.5355 39.3139Z" fill="#0992CD"/>
<path opacity="0.6687" d="M4.53571 39.2279C5.52732 39.2279 6.33118 36.4874 6.33118 33.1069C6.33118 29.7263 5.52732 26.9859 4.53571 26.9859C3.5441 26.9859 2.74023 29.7263 2.74023 33.1069C2.74023 36.4874 3.5441 39.2279 4.53571 39.2279Z" fill="#0993CE"/>
<path opacity="0.6748" d="M4.53543 39.1424C5.51314 39.1424 6.30573 36.4402 6.30573 33.1069C6.30573 29.7735 5.51314 27.0714 4.53543 27.0714C3.55773 27.0714 2.76514 29.7735 2.76514 33.1069C2.76514 36.4402 3.55773 39.1424 4.53543 39.1424Z" fill="#0894CF"/>
<path opacity="0.681" d="M4.53565 39.0569C5.49945 39.0569 6.28077 36.393 6.28077 33.1069C6.28077 29.8208 5.49945 27.1569 4.53565 27.1569C3.57184 27.1569 2.79053 29.8208 2.79053 33.1069C2.79053 36.393 3.57184 39.0569 4.53565 39.0569Z" fill="#0895D0"/>
<path opacity="0.6871" d="M4.53586 38.9709C5.48576 38.9709 6.2558 36.3455 6.2558 33.1069C6.2558 29.8683 5.48576 27.2429 4.53586 27.2429C3.58596 27.2429 2.81592 29.8683 2.81592 33.1069C2.81592 36.3455 3.58596 38.9709 4.53586 38.9709Z" fill="#0896D1"/>
<path opacity="0.6933" d="M4.53559 38.8854C5.47158 38.8854 6.23035 36.2982 6.23035 33.1069C6.23035 29.9155 5.47158 27.3283 4.53559 27.3283C3.59959 27.3283 2.84082 29.9155 2.84082 33.1069C2.84082 36.2982 3.59959 38.8854 4.53559 38.8854Z" fill="#0897D2"/>
<path opacity="0.6994" d="M4.53583 38.7994C5.45821 38.7994 6.20595 36.2508 6.20595 33.1069C6.20595 29.963 5.45821 27.4144 4.53583 27.4144C3.61346 27.4144 2.86572 29.963 2.86572 33.1069C2.86572 36.2508 3.61346 38.7994 4.53583 38.7994Z" fill="#0898D3"/>
<path opacity="0.7055" d="M4.53556 38.7139C5.44403 38.7139 6.18049 36.2035 6.18049 33.1069C6.18049 30.0102 5.44403 27.4998 4.53556 27.4998C3.62709 27.4998 2.89062 30.0102 2.89062 33.1069C2.89062 36.2035 3.62709 38.7139 4.53556 38.7139Z" fill="#0899D3"/>
<path opacity="0.7117" d="M4.53577 38.6284C5.43034 38.6284 6.15553 36.1563 6.15553 33.1069C6.15553 30.0574 5.43034 27.5853 4.53577 27.5853C3.64121 27.5853 2.91602 30.0574 2.91602 33.1069C2.91602 36.1563 3.64121 38.6284 4.53577 38.6284Z" fill="#079AD4"/>
<path opacity="0.7178" d="M4.5355 38.5424C5.41616 38.5424 6.13008 36.1088 6.13008 33.1069C6.13008 30.1049 5.41616 27.6714 4.5355 27.6714C3.65484 27.6714 2.94092 30.1049 2.94092 33.1069C2.94092 36.1088 3.65484 38.5424 4.5355 38.5424Z" fill="#079BD5"/>
<path opacity="0.7239" d="M4.53571 38.4569C5.40247 38.4569 6.10511 36.0616 6.10511 33.1069C6.10511 30.1521 5.40247 27.7568 4.53571 27.7568C3.66895 27.7568 2.96631 30.1521 2.96631 33.1069C2.96631 36.0616 3.66895 38.4569 4.53571 38.4569Z" fill="#079CD6"/>
<path opacity="0.7301" d="M4.53543 38.3709C5.38829 38.3709 6.07966 36.0141 6.07966 33.1069C6.07966 30.1996 5.38829 27.8429 4.53543 27.8429C3.68258 27.8429 2.99121 30.1996 2.99121 33.1069C2.99121 36.0141 3.68258 38.3709 4.53543 38.3709Z" fill="#079DD7"/>
<path opacity="0.7362" d="M4.53565 38.2854C5.37459 38.2854 6.05469 35.9669 6.05469 33.1069C6.05469 30.2469 5.37459 27.9283 4.53565 27.9283C3.6967 27.9283 3.0166 30.2469 3.0166 33.1069C3.0166 35.9669 3.6967 38.2854 4.53565 38.2854Z" fill="#079ED8"/>
<path opacity="0.7423" d="M4.53586 38.1999C5.3609 38.1999 6.02973 35.9197 6.02973 33.1069C6.02973 30.2941 5.3609 28.0138 4.53586 28.0138C3.71082 28.0138 3.04199 30.2941 3.04199 33.1069C3.04199 35.9197 3.71082 38.1999 4.53586 38.1999Z" fill="#079FD9"/>
<path opacity="0.7485" d="M4.53559 38.1139C5.34672 38.1139 6.00428 35.8722 6.00428 33.1069C6.00428 30.3416 5.34672 28.0999 4.53559 28.0999C3.72445 28.0999 3.06689 30.3416 3.06689 33.1069C3.06689 35.8722 3.72445 38.1139 4.53559 38.1139Z" fill="#07A0DA"/>
<path opacity="0.7546" d="M4.5358 38.0284C5.33303 38.0284 5.97931 35.825 5.97931 33.1069C5.97931 30.3888 5.33303 28.1853 4.5358 28.1853C3.73857 28.1853 3.09229 30.3888 3.09229 33.1069C3.09229 35.825 3.73857 38.0284 4.5358 38.0284Z" fill="#06A1DB"/>
<path opacity="0.7607" d="M4.53552 37.9424C5.31885 37.9424 5.95386 35.7775 5.95386 33.1069C5.95386 30.4363 5.31885 28.2714 4.53552 28.2714C3.7522 28.2714 3.11719 30.4363 3.11719 33.1069C3.11719 35.7775 3.7522 37.9424 4.53552 37.9424Z" fill="#06A2DC"/>
<path opacity="0.7669" d="M4.53574 37.8569C5.30516 37.8569 5.92889 35.7303 5.92889 33.1069C5.92889 30.4835 5.30516 28.3568 4.53574 28.3568C3.76632 28.3568 3.14258 30.4835 3.14258 33.1069C3.14258 35.7303 3.76632 37.8569 4.53574 37.8569Z" fill="#06A3DC"/>
<path opacity="0.773" d="M4.53546 37.7714C5.29098 37.7714 5.90344 35.683 5.90344 33.1069C5.90344 30.5307 5.29098 28.4423 4.53546 28.4423C3.77995 28.4423 3.16748 30.5307 3.16748 33.1069C3.16748 35.683 3.77995 37.7714 4.53546 37.7714Z" fill="#06A4DD"/>
<path opacity="0.7791" d="M4.53571 37.6854C5.27761 37.6854 5.87904 35.6355 5.87904 33.1069C5.87904 30.5782 5.27761 28.5284 4.53571 28.5284C3.79381 28.5284 3.19238 30.5782 3.19238 33.1069C3.19238 35.6355 3.79381 37.6854 4.53571 37.6854Z" fill="#06A5DE"/>
<path opacity="0.7853" d="M4.53544 37.5999C5.26343 37.5999 5.85359 35.5883 5.85359 33.1069C5.85359 30.6254 5.26343 28.6138 4.53544 28.6138C3.80744 28.6138 3.21729 30.6254 3.21729 33.1069C3.21729 35.5883 3.80744 37.5999 4.53544 37.5999Z" fill="#06A6DF"/>
<path opacity="0.7914" d="M4.53565 37.5139C5.24974 37.5139 5.82862 35.5408 5.82862 33.1069C5.82862 30.6729 5.24974 28.6998 4.53565 28.6998C3.82156 28.6998 3.24268 30.6729 3.24268 33.1069C3.24268 35.5408 3.82156 37.5139 4.53565 37.5139Z" fill="#05A7E0"/>
<path opacity="0.7975" d="M4.53586 37.4284C5.23605 37.4284 5.80366 35.4936 5.80366 33.1069C5.80366 30.7202 5.23605 28.7853 4.53586 28.7853C3.83568 28.7853 3.26807 30.7202 3.26807 33.1069C3.26807 35.4936 3.83568 37.4284 4.53586 37.4284Z" fill="#05A8E1"/>
<path opacity="0.8037" d="M4.53559 37.3429C5.22187 37.3429 5.7782 35.4464 5.7782 33.1069C5.7782 30.7674 5.22187 28.8708 4.53559 28.8708C3.84931 28.8708 3.29297 30.7674 3.29297 33.1069C3.29297 35.4464 3.84931 37.3429 4.53559 37.3429Z" fill="#05A9E2"/>
<path opacity="0.8098" d="M4.5358 37.2569C5.20817 37.2569 5.75324 35.3989 5.75324 33.1069C5.75324 30.8149 5.20817 28.9568 4.5358 28.9568C3.86343 28.9568 3.31836 30.8149 3.31836 33.1069C3.31836 35.3989 3.86343 37.2569 4.5358 37.2569Z" fill="#05AAE3"/>
<path opacity="0.816" d="M4.53552 37.1714C5.19399 37.1714 5.72779 35.3516 5.72779 33.1069C5.72779 30.8621 5.19399 29.0423 4.53552 29.0423C3.87706 29.0423 3.34326 30.8621 3.34326 33.1069C3.34326 35.3516 3.87706 37.1714 4.53552 37.1714Z" fill="#05ABE4"/>
<path opacity="0.8221" d="M4.53574 37.0854C5.1803 37.0854 5.70282 35.3042 5.70282 33.1069C5.70282 30.9096 5.1803 29.1283 4.53574 29.1283C3.89117 29.1283 3.36865 30.9096 3.36865 33.1069C3.36865 35.3042 3.89117 37.0854 4.53574 37.0854Z" fill="#05ACE5"/>
<path opacity="0.8282" d="M4.53546 36.9999C5.16612 36.9999 5.67737 35.2569 5.67737 33.1069C5.67737 30.9568 5.16612 29.2138 4.53546 29.2138C3.9048 29.2138 3.39355 30.9568 3.39355 33.1069C3.39355 35.2569 3.9048 36.9999 4.53546 36.9999Z" fill="#04ADE6"/>
<path opacity="0.8344" d="M4.53568 36.9145C5.15243 36.9145 5.65241 35.2097 5.65241 33.1069C5.65241 31.004 5.15243 29.2993 4.53568 29.2993C3.91892 29.2993 3.41895 31.004 3.41895 33.1069C3.41895 35.2097 3.91892 36.9145 4.53568 36.9145Z" fill="#04AEE6"/>
<path opacity="0.8405" d="M4.5354 36.8284C5.13825 36.8284 5.62695 35.1622 5.62695 33.1069C5.62695 31.0515 5.13825 29.3853 4.5354 29.3853C3.93255 29.3853 3.44385 31.0515 3.44385 33.1069C3.44385 35.1622 3.93255 36.8284 4.5354 36.8284Z" fill="#04AFE7"/>
<path opacity="0.8466" d="M4.53561 36.7429C5.12456 36.7429 5.60199 35.115 5.60199 33.1069C5.60199 31.0987 5.12456 29.4708 4.53561 29.4708C3.94667 29.4708 3.46924 31.0987 3.46924 33.1069C3.46924 35.115 3.94667 36.7429 4.53561 36.7429Z" fill="#04B0E8"/>
<path opacity="0.8528" d="M4.53583 36.6569C5.11086 36.6569 5.57702 35.0675 5.57702 33.1069C5.57702 31.1462 5.11086 29.5568 4.53583 29.5568C3.96079 29.5568 3.49463 31.1462 3.49463 33.1069C3.49463 35.0675 3.96079 36.6569 4.53583 36.6569Z" fill="#04B1E9"/>
<path opacity="0.8589" d="M4.53559 36.5714C5.09701 36.5714 5.55213 35.0203 5.55213 33.1069C5.55213 31.1934 5.09701 29.6423 4.53559 29.6423C3.97417 29.6423 3.51904 31.1934 3.51904 33.1069C3.51904 35.0203 3.97417 36.5714 4.53559 36.5714Z" fill="#04B2EA"/>
<path opacity="0.865" d="M4.5358 36.4859C5.08332 36.4859 5.52717 34.9731 5.52717 33.1069C5.52717 31.2406 5.08332 29.7278 4.5358 29.7278C3.98828 29.7278 3.54443 31.2406 3.54443 33.1069C3.54443 34.9731 3.98828 36.4859 4.5358 36.4859Z" fill="#04B3EB"/>
<path opacity="0.8712" d="M4.53552 36.3999C5.06914 36.3999 5.50171 34.9256 5.50171 33.1069C5.50171 31.2882 5.06914 29.8138 4.53552 29.8138C4.00191 29.8138 3.56934 31.2882 3.56934 33.1069C3.56934 34.9256 4.00191 36.3999 4.53552 36.3999Z" fill="#03B4EC"/>
<path opacity="0.8773" d="M4.53574 36.3144C5.05544 36.3144 5.47675 34.8784 5.47675 33.1069C5.47675 31.3354 5.05544 29.8993 4.53574 29.8993C4.01603 29.8993 3.59473 31.3354 3.59473 33.1069C3.59473 34.8784 4.01603 36.3144 4.53574 36.3144Z" fill="#03B5ED"/>
<path opacity="0.8834" d="M4.53546 36.2284C5.04126 36.2284 5.4513 34.8309 5.4513 33.1069C5.4513 31.3829 5.04126 29.9853 4.53546 29.9853C4.02966 29.9853 3.61963 31.3829 3.61963 33.1069C3.61963 34.8309 4.02966 36.2284 4.53546 36.2284Z" fill="#03B6EE"/>
<path opacity="0.8896" d="M4.53568 36.1429C5.02757 36.1429 5.42633 34.7836 5.42633 33.1069C5.42633 31.4301 5.02757 30.0708 4.53568 30.0708C4.04378 30.0708 3.64502 31.4301 3.64502 33.1069C3.64502 34.7836 4.04378 36.1429 4.53568 36.1429Z" fill="#03B7EF"/>
<path opacity="0.8957" d="M4.5354 36.0575C5.01339 36.0575 5.40088 34.7364 5.40088 33.1069C5.40088 31.4773 5.01339 30.1563 4.5354 30.1563C4.05741 30.1563 3.66992 31.4773 3.66992 33.1069C3.66992 34.7364 4.05741 36.0575 4.5354 36.0575Z" fill="#03B8F0"/>
<path opacity="0.9018" d="M4.53561 35.9714C4.9997 35.9714 5.37592 34.6889 5.37592 33.1069C5.37592 31.5248 4.9997 30.2423 4.53561 30.2423C4.07153 30.2423 3.69531 31.5248 3.69531 33.1069C3.69531 34.6889 4.07153 35.9714 4.53561 35.9714Z" fill="#03B9F0"/>
<path opacity="0.908" d="M4.53583 35.886C4.98601 35.886 5.35095 34.6417 5.35095 33.1069C5.35095 31.572 4.98601 30.3278 4.53583 30.3278C4.08565 30.3278 3.7207 31.572 3.7207 33.1069C3.7207 34.6417 4.08565 35.886 4.53583 35.886Z" fill="#02BAF1"/>
<path opacity="0.9141" d="M4.53555 35.8C4.97183 35.8 5.3255 34.5942 5.3255 33.1069C5.3255 31.6195 4.97183 30.4138 4.53555 30.4138C4.09928 30.4138 3.74561 31.6195 3.74561 33.1069C3.74561 34.5942 4.09928 35.8 4.53555 35.8Z" fill="#02BBF2"/>
<path opacity="0.9202" d="M4.53576 35.7145C4.95813 35.7145 5.30053 34.547 5.30053 33.1069C5.30053 31.6668 4.95813 30.4993 4.53576 30.4993C4.11339 30.4993 3.771 31.6668 3.771 33.1069C3.771 34.547 4.11339 35.7145 4.53576 35.7145Z" fill="#02BCF3"/>
<path opacity="0.9264" d="M4.53549 35.629C4.94395 35.629 5.27508 34.4998 5.27508 33.1069C5.27508 31.714 4.94395 30.5848 4.53549 30.5848C4.12702 30.5848 3.7959 31.714 3.7959 33.1069C3.7959 34.4998 4.12702 35.629 4.53549 35.629Z" fill="#02BDF4"/>
<path opacity="0.9325" d="M4.5357 35.543C4.93026 35.543 5.25012 34.4523 5.25012 33.1069C5.25012 31.7615 4.93026 30.6708 4.5357 30.6708C4.14114 30.6708 3.82129 31.7615 3.82129 33.1069C3.82129 34.4523 4.14114 35.543 4.5357 35.543Z" fill="#02BEF5"/>
<path opacity="0.9387" d="M4.53543 35.4575C4.91608 35.4575 5.22466 34.4051 5.22466 33.1069C5.22466 31.8087 4.91608 30.7563 4.53543 30.7563C4.15477 30.7563 3.84619 31.8087 3.84619 33.1069C3.84619 34.4051 4.15477 35.4575 4.53543 35.4575Z" fill="#02BFF6"/>
<path opacity="0.9448" d="M5.20026 33.1069C5.20026 34.3578 4.90285 35.3714 4.53568 35.3714C4.1685 35.3714 3.87109 34.3573 3.87109 33.1069C3.87109 31.8559 4.1685 30.8423 4.53568 30.8423C4.90285 30.8423 5.20026 31.8559 5.20026 33.1069Z" fill="#01C0F7"/>
<path opacity="0.9509" d="M4.5354 35.2859C4.88854 35.2859 5.17481 34.3103 5.17481 33.1069C5.17481 31.9034 4.88854 30.9278 4.5354 30.9278C4.18227 30.9278 3.896 31.9034 3.896 33.1069C3.896 34.3103 4.18227 35.2859 4.5354 35.2859Z" fill="#01C1F8"/>
<path opacity="0.9571" d="M5.14984 33.1069C5.14984 34.2628 4.87499 35.2005 4.53561 35.2005C4.19624 35.2005 3.92139 34.2633 3.92139 33.1069C3.92139 31.951 4.19624 31.0133 4.53561 31.0133C4.87499 31.0138 5.14984 31.951 5.14984 33.1069Z" fill="#01C2F9"/>
<path opacity="0.9632" d="M4.53583 35.1145C4.86115 35.1145 5.12488 34.2156 5.12488 33.1069C5.12488 31.9981 4.86115 31.0993 4.53583 31.0993C4.2105 31.0993 3.94678 31.9981 3.94678 33.1069C3.94678 34.2156 4.2105 35.1145 4.53583 35.1145Z" fill="#01C3FA"/>
<path opacity="0.9693" d="M5.09942 33.1069C5.09942 34.1683 4.84712 35.029 4.53555 35.029C4.22398 35.029 3.97168 34.1683 3.97168 33.1069C3.97168 32.0455 4.22398 31.1848 4.53555 31.1848C4.84712 31.1848 5.09942 32.0455 5.09942 33.1069Z" fill="#01C4FA"/>
<path opacity="0.9755" d="M4.53577 34.943C4.83328 34.943 5.07446 34.1209 5.07446 33.1069C5.07446 32.0928 4.83328 31.2708 4.53577 31.2708C4.23825 31.2708 3.99707 32.0928 3.99707 33.1069C3.99707 34.1209 4.23825 34.943 4.53577 34.943Z" fill="#01C5FB"/>
<path opacity="0.9816" d="M5.04901 33.1069C5.04901 34.0738 4.81926 34.8575 4.53549 34.8575C4.25172 34.8575 4.02197 34.0738 4.02197 33.1069C4.02197 32.14 4.25172 31.3563 4.53549 31.3563C4.81926 31.3563 5.04901 32.14 5.04901 33.1069Z" fill="#00C6FC"/>
<path opacity="0.9877" d="M4.5357 34.772C4.80541 34.772 5.02404 34.0265 5.02404 33.1069C5.02404 32.1872 4.80541 31.4417 4.5357 31.4417C4.266 31.4417 4.04736 32.1872 4.04736 33.1069C4.04736 34.0265 4.266 34.772 4.5357 34.772Z" fill="#00C7FD"/>
<path opacity="0.9939" d="M4.99859 33.1069C4.99859 33.9792 4.7914 34.686 4.53543 34.686C4.27946 34.686 4.07227 33.9787 4.07227 33.1069C4.07227 32.2345 4.27946 31.5278 4.53543 31.5278C4.7914 31.5278 4.99859 32.235 4.99859 33.1069Z" fill="#00C8FE"/>
<path d="M4.53564 34.6005C4.77753 34.6005 4.97363 33.9318 4.97363 33.1069C4.97363 32.282 4.77753 31.6133 4.53564 31.6133C4.29375 31.6133 4.09766 32.282 4.09766 33.1069C4.09766 33.9318 4.29375 34.6005 4.53564 34.6005Z" fill="#00C9FF"/>
</g>
</g>
<defs>
<linearGradient id="paint0_linear_1_3282" x1="6.66425" y1="29.5001" x2="95.218" y2="29.5001" gradientUnits="userSpaceOnUse">
<stop stop-color="#3674FC"/>
<stop offset="0.1502" stop-color="#152660"/>
<stop offset="0.8617" stop-color="#162A68"/>
<stop offset="1" stop-color="#2B6CFC"/>
</linearGradient>
<clipPath id="clip0_1_3282">
<rect width="98" height="59" fill="white"/>
</clipPath>
</defs>
</svg>
